<mxfile host="app.diagrams.net" modified="2023-04-28T20:47:50.103Z" agent="Mozilla/5.0" etag="e9XdpyQ6P1zQRBGnYBQB" version="21.2.3">
  <diagram name="Banking API Schema" id="banking-api-schema">
    <mxGraphModel dx="1200" dy="800" grid="1" gridSize="10" guides="1" tooltips="1" connect="1" arrows="1" fold="1" page="1" pageScale="1" pageWidth="1100" pageHeight="850" background="#ffffff" math="0" shadow="0">
      <root>
        <mxCell id="0" />
        <mxCell id="1" parent="0" />
        
        <!-- Base Entity Abstract Class -->
        <mxCell id="2" value="&lt;p style=&quot;margin:0px;margin-top:4px;text-align:center;&quot;&gt;&lt;i&gt;&amp;lt;&amp;lt;Abstract&amp;gt;&amp;gt;&lt;/i&gt;&lt;br&gt;&lt;b&gt;BaseEntity&lt;/b&gt;&lt;/p&gt;&lt;hr size=&quot;1&quot;&gt;&lt;p style=&quot;margin:0px;margin-left:4px;&quot;&gt;# id: string (uuid)&lt;br&gt;# createdAt: Date&lt;br&gt;# updatedAt: Date&lt;/p&gt;" style="verticalAlign=top;align=left;overflow=fill;fontSize=12;fontFamily=Helvetica;html=1;rounded=0;shadow=0;comic=0;labelBackgroundColor=none;strokeWidth=1;fillColor=#dae8fc;strokeColor=#6c8ebf;" parent="1" vertex="1">
          <mxGeometry x="400" y="40" width="190" height="100" as="geometry" />
        </mxCell>
        
        <!-- User Entity -->
        <mxCell id="3" value="&lt;p style=&quot;margin:0px;margin-top:4px;text-align:center;&quot;&gt;&lt;b&gt;User&lt;/b&gt;&lt;/p&gt;&lt;hr size=&quot;1&quot;&gt;&lt;p style=&quot;margin:0px;margin-left:4px;&quot;&gt;+ email: string&lt;br&gt;+ username: string&lt;br&gt;+ fullName: string&lt;br&gt;+ password: string&lt;br&gt;+ gbpWalletBalance: number&lt;br&gt;+ cryptoBalance: number&lt;br&gt;+ snTokenBalance: number&lt;br&gt;+ notificationCount: number&lt;/p&gt;" style="verticalAlign=top;align=left;overflow=fill;fontSize:12;fontFamily=Helvetica;html=1;rounded=0;shadow=0;comic=0;labelBackgroundColor=none;strokeWidth=1;fillColor=#fff2cc;strokeColor=#d6b656;" parent="1" vertex="1">
          <mxGeometry x="400" y="240" width="190" height="170" as="geometry" />
        </mxCell>
        
        <!-- Card Entity -->
        <mxCell id="4" value="&lt;p style=&quot;margin:0px;margin-top:4px;text-align:center;&quot;&gt;&lt;b&gt;Card&lt;/b&gt;&lt;/p&gt;&lt;hr size=&quot;1&quot;&gt;&lt;p style=&quot;margin:0px;margin-left:4px;&quot;&gt;+ cardHolderName: string&lt;br&gt;+ lastFourDigits: string&lt;br&gt;+ encryptedCardNumber: string&lt;br&gt;+ cardType: CardType&lt;br&gt;+ expiryMonth: string&lt;br&gt;+ expiryYear: string&lt;br&gt;+ isDefault: boolean&lt;br&gt;+ userId: string&lt;/p&gt;" style="verticalAlign=top;align=left;overflow=fill;fontSize:12;fontFamily=Helvetica;html=1;rounded=0;shadow=0;comic=0;labelBackgroundColor=none;strokeWidth=1;fillColor=#f8cecc;strokeColor=#b85450;" parent="1" vertex="1">
          <mxGeometry x="100" y="240" width="190" height="170" as="geometry" />
        </mxCell>
        
        <!-- Checkout Entity -->
        <mxCell id="5" value="&lt;p style=&quot;margin:0px;margin-top:4px;text-align:center;&quot;&gt;&lt;b&gt;Checkout&lt;/b&gt;&lt;/p&gt;&lt;hr size=&quot;1&quot;&gt;&lt;p style=&quot;margin:0px;margin-left:4px;&quot;&gt;+ amount: number&lt;br&gt;+ merchantName: string&lt;br&gt;+ merchantId: string&lt;br&gt;+ status: CheckoutStatus&lt;br&gt;+ selectedPaymentMethod: PaymentMethod&lt;br&gt;+ qrCodeData: string&lt;br&gt;+ userId: string&lt;/p&gt;" style="verticalAlign=top;align=left;overflow=fill;fontSize:12;fontFamily=Helvetica;html=1;rounded=0;shadow=0;comic=0;labelBackgroundColor=none;strokeWidth=1;fillColor=#d5e8d4;strokeColor=#82b366;" parent="1" vertex="1">
          <mxGeometry x="700" y="240" width="220" height="150" as="geometry" />
        </mxCell>
        
        <!-- Payment Entity -->
        <mxCell id="6" value="&lt;p style=&quot;margin:0px;margin-top:4px;text-align:center;&quot;&gt;&lt;b&gt;Payment&lt;/b&gt;&lt;/p&gt;&lt;hr size=&quot;1&quot;&gt;&lt;p style=&quot;margin:0px;margin-left:4px;&quot;&gt;+ amount: number&lt;br&gt;+ status: PaymentStatus&lt;br&gt;+ paymentMethod: PaymentMethod&lt;br&gt;+ transactionReference: string&lt;br&gt;+ cardLastFour: string&lt;br&gt;+ checkoutId: string&lt;br&gt;+ userId: string&lt;/p&gt;" style="verticalAlign=top;align=left;overflow=fill;fontSize:12;fontFamily=Helvetica;html=1;rounded=0;shadow=0;comic=0;labelBackgroundColor=none;strokeWidth=1;fillColor=#e1d5e7;strokeColor=#9673a6;" parent="1" vertex="1">
          <mxGeometry x="700" y="450" width="220" height="150" as="geometry" />
        </mxCell>
        
        <!-- Receipt Entity -->
        <mxCell id="7" value="&lt;p style=&quot;margin:0px;margin-top:4px;text-align:center;&quot;&gt;&lt;b&gt;Receipt&lt;/b&gt;&lt;/p&gt;&lt;hr size=&quot;1&quot;&gt;&lt;p style=&quot;margin:0px;margin-left:4px;&quot;&gt;+ receiptNumber: string&lt;br&gt;+ merchantName: string&lt;br&gt;+ transactionDate: Date&lt;br&gt;+ amount: number&lt;br&gt;+ paymentMethod: string&lt;br&gt;+ paymentStatus: string&lt;br&gt;+ items: any (jsonb)&lt;br&gt;+ emailSent: boolean&lt;br&gt;+ paymentId: string&lt;br&gt;+ userId: string&lt;/p&gt;" style="verticalAlign=top;align=left;overflow=fill;fontSize:12;fontFamily=Helvetica;html=1;rounded=0;shadow=0;comic=0;labelBackgroundColor=none;strokeWidth=1;fillColor=#e1d5e7;strokeColor=#9673a6;" parent="1" vertex="1">
          <mxGeometry x="400" y="450" width="190" height="190" as="geometry" />
        </mxCell>
        
        <!-- Notification Entity -->
        <mxCell id="8" value="&lt;p style=&quot;margin:0px;margin-top:4px;text-align:center;&quot;&gt;&lt;b&gt;Notification&lt;/b&gt;&lt;/p&gt;&lt;hr size=&quot;1&quot;&gt;&lt;p style=&quot;margin:0px;margin-left:4px;&quot;&gt;+ title: string&lt;br&gt;+ content: string&lt;br&gt;+ type: NotificationType&lt;br&gt;+ isRead: boolean&lt;br&gt;+ referenceId: string&lt;br&gt;+ userId: string&lt;/p&gt;" style="verticalAlign=top;align=left;overflow=fill;fontSize:12;fontFamily=Helvetica;html=1;rounded=0;shadow=0;comic=0;labelBackgroundColor=none;strokeWidth=1;fillColor=#ffe6cc;strokeColor=#d79b00;" parent="1" vertex="1">
          <mxGeometry x="100" y="450" width="190" height="140" as="geometry" />
        </mxCell>
        
        <!-- Review Entity -->
        <mxCell id="9" value="&lt;p style=&quot;margin:0px;margin-top:4px;text-align:center;&quot;&gt;&lt;b&gt;Review&lt;/b&gt;&lt;/p&gt;&lt;hr size=&quot;1&quot;&gt;&lt;p style=&quot;margin:0px;margin-left:4px;&quot;&gt;+ rating: number&lt;br&gt;+ title: string&lt;br&gt;+ content: string&lt;br&gt;+ merchantName: string&lt;br&gt;+ emailSent: boolean&lt;br&gt;+ userId: string&lt;br&gt;+ paymentId: string&lt;/p&gt;" style="verticalAlign=top;align=left;overflow=fill;fontSize:12;fontFamily=Helvetica;html=1;rounded=0;shadow=0;comic=0;labelBackgroundColor=none;strokeWidth=1;fillColor=#ffe6cc;strokeColor=#d79b00;" parent="1" vertex="1">
          <mxGeometry x="100" y="640" width="190" height="150" as="geometry" />
        </mxCell>
        
        <!-- Enum: CardType -->
        <mxCell id="10" value="&lt;p style=&quot;margin:0px;margin-top:4px;text-align:center;&quot;&gt;&lt;b&gt;CardType&lt;/b&gt;&lt;/p&gt;&lt;hr size=&quot;1&quot;&gt;&lt;p style=&quot;margin:0px;margin-left:4px;&quot;&gt;VISA&lt;br&gt;MASTERCARD&lt;br&gt;AMEX&lt;/p&gt;" style="verticalAlign=top;align=left;overflow=fill;fontSize:12;fontFamily=Helvetica;html=1;rounded=0;shadow=0;comic=0;labelBackgroundColor=none;strokeWidth=1;fillColor=#f5f5f5;strokeColor=#666666;fontColor=#333333;" parent="1" vertex="1">
          <mxGeometry x="100" y="70" width="100" height="80" as="geometry" />
        </mxCell>
        
        <!-- Enum: PaymentMethod -->
        <mxCell id="11" value="&lt;p style=&quot;margin:0px;margin-top:4px;text-align:center;&quot;&gt;&lt;b&gt;PaymentMethod&lt;/b&gt;&lt;/p&gt;&lt;hr size=&quot;1&quot;&gt;&lt;p style=&quot;margin:0px;margin-left:4px;&quot;&gt;CREDIT_CARD&lt;br&gt;CRYPTO&lt;br&gt;SN_TOKENS&lt;br&gt;GBP_WALLET&lt;/p&gt;" style="verticalAlign=top;align=left;overflow=fill;fontSize:12;fontFamily=Helvetica;html=1;rounded=0;shadow=0;comic=0;labelBackgroundColor=none;strokeWidth=1;fillColor=#f5f5f5;strokeColor=#666666;fontColor=#333333;" parent="1" vertex="1">
          <mxGeometry x="705" y="70" width="120" height="100" as="geometry" />
        </mxCell>
        
        <!-- Enum: PaymentStatus -->
        <mxCell id="12" value="&lt;p style=&quot;margin:0px;margin-top:4px;text-align:center;&quot;&gt;&lt;b&gt;PaymentStatus&lt;/b&gt;&lt;/p&gt;&lt;hr size=&quot;1&quot;&gt;&lt;p style=&quot;margin:0px;margin-left:4px;&quot;&gt;INITIATED&lt;br&gt;PROCESSING&lt;br&gt;COMPLETED&lt;br&gt;FAILED&lt;/p&gt;" style="verticalAlign=top;align=left;overflow=fill;fontSize:12;fontFamily=Helvetica;html=1;rounded=0;shadow=0;comic=0;labelBackgroundColor=none;strokeWidth=1;fillColor=#f5f5f5;strokeColor=#666666;fontColor=#333333;" parent="1" vertex="1">
          <mxGeometry x="835" y="70" width="120" height="100" as="geometry" />
        </mxCell>
        
        <!-- Enum: NotificationType -->
        <mxCell id="13" value="&lt;p style=&quot;margin:0px;margin-top:4px;text-align:center;&quot;&gt;&lt;b&gt;NotificationType&lt;/b&gt;&lt;/p&gt;&lt;hr size=&quot;1&quot;&gt;&lt;p style=&quot;margin:0px;margin-left:4px;&quot;&gt;PAYMENT_PENDING&lt;br&gt;PAYMENT_COMPLETED&lt;br&gt;NEW_CARD_ADDED&lt;br&gt;REVIEW_REMINDER&lt;/p&gt;" style="verticalAlign=top;align=left;overflow=fill;fontSize:12;fontFamily=Helvetica;html=1;rounded=0;shadow=0;comic=0;labelBackgroundColor=none;strokeWidth=1;fillColor=#f5f5f5;strokeColor=#666666;fontColor=#333333;" parent="1" vertex="1">
          <mxGeometry x="210" y="70" width="150" height="100" as="geometry" />
        </mxCell>
        
        <!-- Enum: CheckoutStatus -->
        <mxCell id="14" value="&lt;p style=&quot;margin:0px;margin-top:4px;text-align:center;&quot;&gt;&lt;b&gt;CheckoutStatus&lt;/b&gt;&lt;/p&gt;&lt;hr size=&quot;1&quot;&gt;&lt;p style=&quot;margin:0px;margin-left:4px;&quot;&gt;PENDING&lt;br&gt;PROCESSING&lt;br&gt;COMPLETED&lt;br&gt;FAILED&lt;/p&gt;" style="verticalAlign=top;align=left;overflow=fill;fontSize:12;fontFamily=Helvetica;html=1;rounded=0;shadow=0;comic=0;labelBackgroundColor=none;strokeWidth=1;fillColor=#f5f5f5;strokeColor=#666666;fontColor=#333333;" parent="1" vertex="1">
          <mxGeometry x="965" y="70" width="120" height="100" as="geometry" />
        </mxCell>
        
        <!-- Relationships -->
        <!-- BaseEntity to all entities -->
        <mxCell id="15" value="" style="endArrow=block;endSize=16;endFill=0;html=1;rounded=0;exitX=0.5;exitY=0;exitDx=0;exitDy=0;entryX=0.5;entryY=1;entryDx=0;entryDy=0;" edge="1" parent="1" source="3" target="2">
          <mxGeometry width="160" relative="1" as="geometry">
            <mxPoint x="470" y="180" as="sourcePoint" />
            <mxPoint x="630" y="180" as="targetPoint" />
          </mxGeometry>
        </mxCell>
        
        <!-- User to Card relationship -->
        <mxCell id="16" value="" style="endArrow=diamondThin;endFill=1;endSize=12;html=1;rounded=0;exitX=1;exitY=0.5;exitDx=0;exitDy=0;entryX=0;entryY=0.5;entryDx=0;entryDy=0;" edge="1" parent="1" source="4" target="3">
          <mxGeometry width="160" relative="1" as="geometry">
            <mxPoint x="440" y="390" as="sourcePoint" />
            <mxPoint x="600" y="390" as="targetPoint" />
          </mxGeometry>
        </mxCell>
        <mxCell id="17" value="1" style="text;html=1;align=center;verticalAlign=middle;resizable=0;points=[];autosize=1;strokeColor=none;fillColor=none;" vertex="1" parent="1">
          <mxGeometry x="385" y="305" width="30" height="30" as="geometry" />
        </mxCell>
        <mxCell id="18" value="*" style="text;html=1;align=center;verticalAlign=middle;resizable=0;points=[];autosize=1;strokeColor=none;fillColor=none;" vertex="1" parent="1">
          <mxGeometry x="295" y="305" width="30" height="30" as="geometry" />
        </mxCell>
        
        <!-- User to Notification relationship -->
        <mxCell id="19" value="" style="endArrow=diamondThin;endFill=1;endSize=12;html=1;rounded=0;exitX=0.5;exitY=0;exitDx=0;exitDy=0;entryX=0.5;entryY=1;entryDx=0;entryDy=0;" edge="1" parent="1" source="8" target="4">
          <mxGeometry width="160" relative="1" as="geometry">
            <mxPoint x="440" y="390" as="sourcePoint" />
            <mxPoint x="600" y="390" as="targetPoint" />
          </mxGeometry>
        </mxCell>
        
        <!-- User to Checkout relationship -->
        <mxCell id="20" value="" style="endArrow=diamondThin;endFill=1;endSize=12;html=1;rounded=0;exitX=0;exitY=0.5;exitDx=0;exitDy=0;entryX=1;entryY=0.5;entryDx=0;entryDy=0;" edge="1" parent="1" source="5" target="3">
          <mxGeometry width="160" relative="1" as="geometry">
            <mxPoint x="440" y="390" as="sourcePoint" />
            <mxPoint x="600" y="390" as="targetPoint" />
          </mxGeometry>
        </mxCell>
        <mxCell id="21" value="1" style="text;html=1;align=center;verticalAlign=middle;resizable=0;points=[];autosize=1;strokeColor=none;fillColor=none;" vertex="1" parent="1">
          <mxGeometry x="585" y="305" width="30" height="30" as="geometry" />
        </mxCell>
        <mxCell id="22" value="*" style="text;html=1;align=center;verticalAlign=middle;resizable=0;points=[];autosize=1;strokeColor=none;fillColor=none;" vertex="1" parent="1">
          <mxGeometry x="675" y="305" width="30" height="30" as="geometry" />
        </mxCell>
        
        <!-- Checkout to Payment relationship -->
        <mxCell id="23" value="" style="endArrow=diamondThin;endFill=0;endSize=12;html=1;rounded=0;exitX=0.5;exitY=0;exitDx=0;exitDy=0;entryX=0.5;entryY=1;entryDx=0;entryDy=0;" edge="1" parent="1" source="6" target="5">
          <mxGeometry width="160" relative="1" as="geometry">
            <mxPoint x="440" y="390" as="sourcePoint" />
            <mxPoint x="600" y="390" as="targetPoint" />
          </mxGeometry>
        </mxCell>
        <mxCell id="24" value="1" style="text;html=1;align=center;verticalAlign=middle;resizable=0;points=[];autosize=1;strokeColor=none;fillColor=none;" vertex="1" parent="1">
          <mxGeometry x="810" y="390" width="30" height="30" as="geometry" />
        </mxCell>
        <mxCell id="25" value="1" style="text;html=1;align=center;verticalAlign=middle;resizable=0;points=[];autosize=1;strokeColor=none;fillColor=none;" vertex="1" parent="1">
          <mxGeometry x="810" y="430" width="30" height="30" as="geometry" />
        </mxCell>
        
        <!-- Payment to Receipt relationship -->
        <mxCell id="26" value="" style="endArrow=diamondThin;endFill=0;endSize=12;html=1;rounded=0;exitX=1;exitY=0.5;exitDx=0;exitDy=0;entryX=0;entryY=0.5;entryDx=0;entryDy=0;" edge="1" parent="1" source="7" target="6">
          <mxGeometry width="160" relative="1" as="geometry">
            <mxPoint x="440" y="390" as="sourcePoint" />
            <mxPoint x="600" y="390" as="targetPoint" />
          </mxGeometry>
        </mxCell>
        <mxCell id="27" value="1" style="text;html=1;align=center;verticalAlign=middle;resizable=0;points=[];autosize=1;strokeColor=none;fillColor=none;" vertex="1" parent="1">
          <mxGeometry x="675" y="510" width="30" height="30" as="geometry" />
        </mxCell>
        <mxCell id="28" value="1" style="text;html=1;align=center;verticalAlign=middle;resizable=0;points=[];autosize=1;strokeColor=none;fillColor=none;" vertex="1" parent="1">
          <mxGeometry x="595" y="510" width="30" height="30" as="geometry" />
        </mxCell>
        
        <!-- User to Receipt relationship -->
        <mxCell id="29" value="" style="endArrow=diamondThin;endFill=1;endSize=12;html=1;rounded=0;exitX=0.5;exitY=0;exitDx=0;exitDy=0;entryX=0.5;entryY=1;entryDx=0;entryDy=0;" edge="1" parent="1" source="7" target="3">
          <mxGeometry width="160" relative="1" as="geometry">
            <mxPoint x="440" y="390" as="sourcePoint" />
            <mxPoint x="600" y="390" as="targetPoint" />
          </mxGeometry>
        </mxCell>
        
        <!-- Payment to Review relationship -->
        <mxCell id="30" value="" style="endArrow=diamondThin;endFill=1;endSize=12;html=1;rounded=0;exitX=1;exitY=0.5;exitDx=0;exitDy=0;entryX=0;entryY=0.75;entryDx=0;entryDy=0;" edge="1" parent="1" source="9" target="6">
          <mxGeometry width="160" relative="1" as="geometry">
            <mxPoint x="440" y="390" as="sourcePoint" />
            <mxPoint x="600" y="390" as="targetPoint" />
            <Array as="points">
              <mxPoint x="370" y="715" />
              <mxPoint x="370" y="563" />
            </Array>
          </mxGeometry>
        </mxCell>
        <mxCell id="31" value="1" style="text;html=1;align=center;verticalAlign=middle;resizable=0;points=[];autosize=1;strokeColor=none;fillColor=none;" vertex="1" parent="1">
          <mxGeometry x="675" y="535" width="30" height="30" as="geometry" />
        </mxCell>
        <mxCell id="32" value="*" style="text;html=1;align=center;verticalAlign=middle;resizable=0;points=[];autosize=1;strokeColor=none;fillColor=none;" vertex="1" parent="1">
          <mxGeometry x="290" y="715" width="30" height="30" as="geometry" />
        </mxCell>
        
        <!-- User to Review relationship -->
        <mxCell id="33" value="" style="endArrow=diamondThin;endFill=1;endSize=12;html=1;rounded=0;exitX=0.5;exitY=0;exitDx=0;exitDy=0;entryX=0.5;entryY=1;entryDx=0;entryDy=0;" edge="1" parent="1" source="9" target="8">
          <mxGeometry width="160" relative="1" as="geometry">
            <mxPoint x="440" y="390" as="sourcePoint" />
            <mxPoint x="600" y="390" as="targetPoint" />
          </mxGeometry>
        </mxCell>
        
      </root>
    </mxGraphModel>
  </diagram>
</mxfile> 